<?xml version="1.0" standalone="no"?>
<!DOCTYPE svg PUBLIC "-//W3C//DTD SVG 20010904//EN"
 "http://www.w3.org/TR/2001/REC-SVG-20010904/DTD/svg10.dtd">
<svg version="1.0" xmlns="http://www.w3.org/2000/svg"
 width="236.000000pt" height="236.000000pt" viewBox="0 0 236.000000 236.000000"
 preserveAspectRatio="xMidYMid meet">
<metadata>
Created by potrace 1.16, written by Peter Selinger 2001-2019
</metadata>
<g transform="translate(0.000000,236.000000) scale(0.100000,-0.100000)"
fill="#000000" stroke="none">
<path d="M935 2340 c-473 -95 -829 -428 -920 -861 -12 -54 -15 -150 -15 -420
0 -325 5 -391 26 -327 12 39 215 231 313 296 166 111 352 188 556 229 137 27
454 25 592 -5 294 -64 532 -191 734 -392 59 -58 110 -116 113 -128 4 -12 12
-22 17 -22 7 0 9 131 7 377 l-4 378 -27 90 c-125 407 -463 699 -909 786 -130
25 -355 25 -483 -1z"/>
<path d="M1016 633 c-259 -55 -470 -249 -531 -488 -8 -32 -15 -79 -15 -102 l0
-43 710 0 710 0 0 43 c0 62 -25 151 -67 237 -27 56 -57 96 -118 156 -69 70
-97 90 -186 132 -63 31 -134 57 -181 66 -95 20 -230 19 -322 -1z"/>
</g>
</svg>
